<svg width="16" height="16" viewBox="0 0 14 14" fill="none" xmlns="http://www.w3.org/2000/svg">
<g clipPath="url(#clip0_2792_16623)">
<rect y="0.00012207" width="14" height="14" rx="7" fill="#1890FF"/>
<path fillRule="evenodd" clipRule="evenodd" d="M0.636353 6.99999C0.636353 10.5089 3.49108 13.3636 6.99999 13.3636C10.5089 13.3636 13.3636 10.5089 13.3636 6.99999C13.3636 3.49108 10.5089 0.636353 6.99999 0.636353C3.49108 0.636353 0.636353 3.49108 0.636353 6.99999ZM3.81817 6.99999C3.81817 6.64853 4.10308 6.36362 4.45454 6.36362H6.36363V4.45453C6.36363 4.10308 6.64854 3.81817 6.99999 3.81817C7.35145 3.81817 7.63636 4.10308 7.63636 4.45453V6.36362H9.54545C9.8969 6.36362 10.1818 6.64853 10.1818 6.99999C10.1818 7.35144 9.8969 7.63635 9.54545 7.63635H7.63636V9.54544C7.63636 9.89689 7.35145 10.1818 6.99999 10.1818C6.64854 10.1818 6.36363 9.89689 6.36363 9.54544V7.63635H4.45454C4.10308 7.63635 3.81817 7.35144 3.81817 6.99999Z" fill="#E6F7FF"/>
</g>
<defs>
<clipPath id="clip0_2792_16623">
<rect y="0.00012207" width="16" height="16" rx="7" fill="white"/>
</clipPath>
</defs>
</svg>
