<svg width="16" height="16" viewBox="0 0 14 14" fill="none" xmlns="http://www.w3.org/2000/svg">
<g clipPath="url(#clip0_2790_14263)">
<path fillRule="evenodd" clipRule="evenodd" d="M7 14.0002C3.1402 14.0002 0 10.86 0 7.00017C0 3.14037 3.1402 0.000167847 7 0.000167847C10.8598 0.000167847 14 3.14037 14 7.00017C14 10.86 10.8598 14.0002 7 14.0002ZM4.2 6.30017C3.8134 6.30017 3.5 6.61357 3.5 7.00017C3.5 7.38677 3.8134 7.70017 4.2 7.70017H9.8C10.1866 7.70017 10.5 7.38677 10.5 7.00017C10.5 6.61357 10.1866 6.30017 9.8 6.30017H4.2Z" fill="#1890FF"/>
</g>
<defs>
<clipPath id="clip0_2790_14263">
<rect width="16" height="16" fill="white" transform="translate(0 0.000167847)"/>
</clipPath>
</defs>
</svg>
